<!--?xml version="1.0" encoding="utf-8"?-->
<!-- Generator: Adobe Illustrator 18.0.0, SVG Export Plug-In . SVG Version: 6.00 Build 0)  -->

<svg version="1.1" id="_x31_0" xmlns="http://www.w3.org/2000/svg" xmlns:xlink="http://www.w3.org/1999/xlink" x="0px" y="0px" viewBox="0 0 512 512" style="width: 256px; height: 256px; opacity: 1;" xml:space="preserve">
<g>
	<path fill="#773818" d="M19.398,413.158h473.206c13.586,0,21.961-5.504,18.687-12.082l-37.574-69.058
		c-0.175-1.047-0.789-2.035-1.609-2.981V80.131c0-12.64-10.34-22.98-22.981-22.98H62.874c-12.64,0-22.984,10.34-22.984,22.98
		v248.902c-0.82,0.946-1.43,1.938-1.606,2.985L0.711,401.076C-2.562,407.654,5.813,413.158,19.398,413.158z M191.242,380.63
		l13.641-25.714H307.12l13.637,25.714H191.242z M80.75,98.01h350.499v224.378H80.75V98.01z"></path>
	<path fill="#773818" d="M0,429.314v13.25c0,6.785,5.5,12.285,12.285,12.285h487.428c6.786,0,12.286-5.5,12.286-12.285v-13.25H0z"></path>
</g>
</svg>
