<svg width="33" height="25" viewBox="0 0 33 25" fill="none" xmlns="http://www.w3.org/2000/svg">
<path fill-rule="evenodd" clip-rule="evenodd" d="M28.0881 21.4729C30.0473 22.2347 31.5189 22.0534 32.8228 20.8582L18.2914 12.6909L15.4569 14.3855L28.0881 21.4729Z" fill="#BA7B55"/>
<path fill-rule="evenodd" clip-rule="evenodd" d="M8.01301 8.00467C8.87279 7.27162 9.51487 6.24578 9.51828 4.89414C9.52017 3.15326 8.19625 1.604 6.46648 0.741921C4.03255 -0.466964 1.96849 -0.146738 0.700218 1.32622C-0.863726 3.13954 0.406813 5.21651 2.4103 7.098C5.11493 8.60096 7.81918 10.1022 10.5238 11.6052L12.2676 10.6282L8.01301 8.00467ZM3.82962 6.46141C2.02565 5.59675 1.02202 3.87859 1.44907 2.67742C1.87611 1.47668 3.82281 1.04757 5.63889 1.87364C7.45952 2.70357 8.44839 4.32571 8.02172 5.52645C7.59467 6.72719 6.38092 7.6823 3.82962 6.46141Z" fill="#BA7B55"/>
<path fill-rule="evenodd" clip-rule="evenodd" d="M8.52858 22.706C10.0588 20.6071 9.46786 18.3261 7.82933 17.1254L32.8032 3.65314C31.8337 2.52871 30.4405 2.24278 28.7573 2.52699L13.7614 10.6767L12.3822 12.6834L2.0555 18.0848C1.12153 18.7235 0.402584 19.499 0.16029 20.5707C-0.152802 23.3593 1.04846 24.5802 2.97017 24.8357C5.09101 25.1177 7.11229 24.6522 8.52858 22.706ZM1.34565 22.3013C0.918604 21.1005 1.92186 19.3815 3.7262 18.5177C6.27788 17.2968 7.49125 18.2519 7.91981 19.4527C8.34686 20.6539 7.35572 22.2751 5.53737 23.1055C3.71901 23.9359 1.7727 23.5016 1.34565 22.3013Z" fill="#BA7B55"/>
</svg>
