<svg width="213" height="198" viewBox="0 0 213 198" fill="none" xmlns="http://www.w3.org/2000/svg">
<path d="M88.2783 113.148C80.4462 113.137 74.8514 116.726 69.5428 120.958C63.8136 125.525 58.8596 131.008 52.6562 135.03C46.5688 138.976 40.0074 141.618 32.8573 142.745C18.4066 145.023 8.12253 138.883 3.11814 125.119C0.0695076 116.735 -0.878724 108.175 0.876592 99.3897C5.08267 78.3394 19.9921 69.3843 40.4992 75.682C48.8698 78.2527 56.6686 82.1811 64.3354 86.3611C67.1999 87.9229 70.1466 88.665 73.4727 88.1878C77.0421 87.6757 80.3562 86.6122 81.2925 82.8652C82.2598 78.9939 79.46 76.5239 76.5279 74.7806C67.9201 69.6626 58.2556 67.2173 48.8213 64.1915C44.8659 62.9229 40.862 61.6577 37.1298 59.8698C27.9369 55.4661 23.6359 46.4794 24.6627 36.4C26.9523 13.9239 44.0477 1.32249 65.6215 0.104829C83.8651 -0.924837 91.9667 5.53934 95.268 23.5509C96.4451 29.9732 96.9108 36.5246 97.7522 43.0105C98.0063 44.9693 98.2507 46.9604 98.816 48.8414C100.058 52.9745 100.851 58.1 106.228 58.4141C111.487 58.7211 113.135 53.7846 115.091 49.9574C117.313 45.6074 117.923 40.6177 117.659 36.0193C116.143 9.61305 137.447 0.454498 158.897 4.96041C174.621 8.26372 188.055 15.2015 194.335 31.4988C199.63 45.24 193.686 64.3267 176.95 69.0041C170.406 70.833 165.47 75.288 162.284 81.3094C159.369 86.8166 161.37 90.0065 167.56 90.2191C170.733 90.3281 173.911 90.2885 177.082 90.4247C198.665 91.3523 209.698 100.869 212.449 122.11C214.477 137.777 211.264 152.327 196.816 161.172C182.882 169.702 167.84 171.828 152.82 163.224C145.331 158.934 141.164 152.152 139.593 143.682C138.765 139.216 138.116 134.639 135.125 130.92C133.85 129.334 132.396 127.746 130.13 128.608C127.888 129.46 127.599 131.712 127.919 133.626C128.536 137.324 129.325 141.036 130.5 144.592C140.742 175.576 116.948 203.178 85.0617 197.087C77.2598 195.596 69.721 193.148 62.7368 189.165C50.1208 181.97 46.1721 169.791 52.5179 156.67C55.3832 150.746 59.2345 145.48 64.0071 140.877C70.8583 134.269 77.6119 127.56 84.3581 120.845C86.3003 118.911 88.2847 116.918 88.2783 113.148ZM129.864 117.825C131.448 117.825 133.035 117.878 134.617 117.817C147.635 117.313 154.086 109.939 152.901 96.943C150.506 70.6653 120.537 55.7198 98.1489 69.6383C89.8673 74.787 85.8859 84.5528 88.5709 93.807C90.811 101.528 95.3725 107.584 102.399 111.682C110.905 116.643 120.224 117.99 129.864 117.825Z" fill="#BE7D54"/>
<path d="M128.757 111.417C121.469 110.714 114.087 110.322 107.874 105.716C101.705 101.142 98.1881 95.1221 99.4121 87.3345C100.579 79.9095 106.21 76.6678 112.848 74.7062C127.886 70.2619 143.731 81.0638 145.08 96.7292C145.893 106.169 139.445 111.969 128.757 111.417Z" fill="#BE7D54"/>
</svg>
