<svg width="188" height="183" viewBox="0 0 188 183" fill="none" xmlns="http://www.w3.org/2000/svg">
<path d="M118.26 75.2939C122.22 78.2252 126.562 76.8279 130.684 76.0941C134.635 75.3907 138.029 73.162 141.468 71.1295C149.262 66.5229 157.561 64.5898 166.656 66.1954C178.355 68.2607 184.686 74.1958 186.722 85.9225C188.368 95.4043 187.109 104.622 182.866 113.259C176.309 126.605 163.668 131.305 148.545 126.154C139.542 123.087 132 117.504 124.705 111.626C120.924 108.579 116.924 106.869 112.048 107.838C110.472 108.151 108.854 108.62 108.211 110.298C107.429 112.342 108.737 113.734 110.111 114.91C113.493 117.803 117.711 119.17 121.639 121.07C129.7 124.97 137.875 128.698 143.615 136.031C150.786 145.192 151.219 157.08 144.671 166.574C132.429 184.326 105.315 187.864 89.422 173.896C79.3723 165.063 79.0562 153.888 81.5495 142.085C82.7487 136.408 83.9051 130.77 83.4224 124.948C83.2282 122.605 83.227 119.841 80.5921 118.83C77.7404 117.736 75.6725 119.781 73.8034 121.565C71.7434 123.53 70.7454 126.15 69.7656 128.784C67.5481 134.743 65.616 140.856 62.8343 146.548C58.6334 155.144 48.9319 159.773 39.4543 158.433C19.5599 155.62 4.12364 142.298 0.516144 124.827C-2.56316 109.915 8.51315 94.9636 23.6848 94.0497C29.7322 93.6854 35.0493 92.0643 39.4469 87.9684C44.5034 83.2588 43.6073 79.4858 37.0826 77.2884C34.82 76.5264 32.5196 75.8762 30.2589 75.1088C10.7618 68.4908 3.96355 56.5864 8.16895 36.4607C13.6945 10.0175 41.2435 -1.41773 63.8819 13.5363C72.5137 19.2381 76.6791 27.554 75.6214 38.0478C75.2174 42.0556 75.1834 46.0095 76.0387 49.9209C76.5229 52.1354 77.6656 54.2599 80.2738 54.2438C82.724 54.2287 83.5191 51.9729 83.8548 50.0605C84.2972 47.5388 84.5349 44.8875 84.2756 42.3517C82.8603 28.5083 88.6805 17.4954 97.9718 8.10707C103.469 2.55217 110.494 -0.150627 118.517 0.00647252C130.935 0.249773 141.427 5.14128 149.904 13.8386C162.93 27.203 158.144 49.9654 140.57 59.9162C134.686 63.2478 128.728 66.4497 122.899 69.8748C120.922 71.0369 118.692 72.2255 118.26 75.2939ZM82.9609 59.9231C73.843 59.9511 65.7538 62.9056 59.0818 69.0938C50.4942 77.0587 49.6757 88.2742 56.7987 97.4934C64.7211 107.747 75.6646 110.368 87.7207 108.526C101.666 106.396 109.07 96.5792 107.931 82.9699C106.795 69.4038 96.56 59.9668 82.9609 59.9231Z" fill="#F09A4F" fill-opacity="0.4"/>
<path d="M80.3689 68.0109C91.5399 68.1103 98.9261 75.1098 98.7229 85.4041C98.5365 94.8506 91.6862 101.561 82.432 101.362C70.9913 101.117 60.7104 92.0404 60.9252 82.3758C61.1077 74.1612 69.5625 67.9148 80.3689 68.0109Z" fill="#F09A4F" fill-opacity="0.4"/>
</svg>
