<svg width="213" height="202" viewBox="0 0 213 202" fill="none" xmlns="http://www.w3.org/2000/svg">
<path d="M87.9899 116.17C79.057 115.802 72.857 120.353 66.8772 125.353C59.7338 131.326 53.4281 138.34 44.5158 142.036C39.1229 144.272 33.62 145.766 27.8595 146.348C20.1111 147.132 13.835 144.318 9.04913 138.213C-1.39267 124.892 -3.08107 99.5653 5.46583 84.8953C13.0721 71.8398 27.2032 66.1753 42.3982 69.9991C50.9796 72.1586 58.7292 76.1257 66.3829 80.4308C70.7673 82.897 75.3213 85.8456 80.7663 82.4678C80.0639 78.7505 77.0993 77.6895 74.4543 76.5462C64.7823 72.3655 55.0061 68.4251 45.3474 64.2147C42.0824 62.7914 38.9258 61.0264 35.933 59.0882C24.7362 51.8371 20.9694 38.8749 26.357 26.661C35.3833 6.19803 59.7968 -4.74616 81.0774 1.98093C92.9054 5.71993 97.7047 14.8639 99.8178 25.9906C101.004 32.2374 101.634 38.5924 102.439 44.9084C103.021 49.4847 104.174 53.9026 106.133 58.0625C107.046 60.0012 108.152 62.3332 110.819 61.9398C113.439 61.5534 114.962 59.4922 115.33 56.9747C115.731 54.238 115.808 51.4371 115.816 48.6636C115.829 43.8937 115.543 39.121 115.622 34.3534C115.935 15.4612 124.163 6.46974 143.137 5.66744C159.071 4.99374 173.547 10.078 185.231 21.0267C200.507 35.3417 194.181 61.3033 173.885 68.6148C166.679 71.2107 161.175 75.2017 159.29 82.9271C157.64 89.6927 160.111 92.9176 166.938 92.8363C173.135 92.7624 179.305 93.0447 185.355 94.2698C200.622 97.3619 208.791 106.936 211.573 122.189C214.685 139.25 209.29 156.615 196.215 164.429C182.337 172.722 167.504 175.034 152.577 166.715C145.238 162.625 140.923 156.052 139.334 147.782C138.469 143.277 137.671 138.74 135.167 134.803C133.759 132.588 131.993 130.591 128.869 131.283C125.921 131.936 124.614 134.198 124.069 136.808C123.14 141.258 124.659 145.399 125.894 149.635C129.765 162.914 128.38 175.721 120.965 187.463C114.683 197.409 105.055 201.613 93.5099 201.236C84.0698 200.928 75.1169 198.392 66.4383 194.616C39.1241 182.732 45.3368 156.788 61.9184 145.006C69.2268 139.812 76.6611 134.809 82.7481 128.162C85.6445 124.999 88.9166 121.841 87.9899 116.17ZM123.558 125.027C145.448 125.168 155.9 114.707 152.535 95.8835C151.979 92.7723 151.071 89.6676 149.894 86.7333C143.507 70.8133 128.659 62.8328 114.877 67.7689C97.2975 74.0653 88.0351 89.7539 92.6883 105.352C96.3052 117.477 107.994 124.926 123.558 125.027Z" fill="#F09A4F" fill-opacity="0.4"/>
<path d="M123.822 75.6138C134.638 75.6055 145.13 87.877 144.998 100.381C144.897 109.982 136.97 116.217 124.971 116.133C111.683 116.04 102.233 108.371 102.098 97.5713C101.959 86.4514 112.673 75.6223 123.822 75.6138Z" fill="#F09A4F" fill-opacity="0.4"/>
</svg>
