<svg width="104" height="100" viewBox="0 0 104 100" fill="none" xmlns="http://www.w3.org/2000/svg">
<path d="M39.3879 70.5487C32.0942 76.459 26.8744 84.4566 16.6678 81.2495C10.919 79.4433 6.19079 76.5738 3.28599 71.1253C0.594386 66.0765 -0.823616 60.8587 0.505484 55.0803C1.94308 48.8304 6.23158 45.1153 11.7279 42.8377C16.7887 40.7405 22.1341 39.3301 28.3696 37.284C22.7355 34.9518 17.8851 33.2901 13.352 31.0001C1.70938 25.1186 1.12387 14.1724 11.9153 6.73804C18.6566 2.09384 26.0937 -0.300075 34.3397 0.0301249C42.3664 0.351525 47.9019 3.82883 50.0864 11.9646C50.6677 14.1293 50.9646 16.6871 54.1085 18.5176C58.8936 11.4308 61.2049 1.02563 72.3494 1.61493C79.8652 2.01233 87.7089 2.94794 93.6561 8.05014C98.5267 12.2286 100.708 18.0394 98.9442 24.7557C97.3 31.0174 91.1986 33.9571 87.3532 40.0354C96.3667 40.1337 103.277 42.7418 103.804 52.2284C104.204 59.4219 102.729 66.804 95.7658 70.2862C86.5101 74.915 78.0445 71.476 70.1344 64.5868C69.4298 69.5132 71.7562 73.3216 72.7298 77.3014C76.6416 93.2916 61.0258 101.826 51.6907 98.7807C42.3824 95.7437 36.6148 86.5859 38.1385 76.9523C38.4102 75.2343 38.8007 73.5352 39.3879 70.5487ZM57.3352 30.3655C53.1029 30.1326 48.5628 30.637 44.247 32.2564C36.1989 35.2763 34.5326 41.3425 39.7476 48.1182C48.2336 59.1439 65.5177 62.1353 77.3958 54.6339C81.8206 51.8395 83.0691 47.5318 80.374 42.8583C75.3755 34.1906 67.7364 30.0503 57.3352 30.3655Z" fill="#CF8F58"/>
</svg>
