<svg width="301" height="320" viewBox="0 0 301 320" fill="none" xmlns="http://www.w3.org/2000/svg">
<path opacity="0.991" fill-rule="evenodd" clip-rule="evenodd" d="M51.3859 -0.0543213C52.4575 -0.0543213 53.5292 -0.0543213 54.6009 -0.0543213C60.1132 1.04638 63.3818 4.36855 64.4066 9.91219C64.7319 16.284 61.8919 20.5171 55.8869 22.6115C58.1728 33.3276 61.6558 43.6335 66.3356 53.5291C66.051 47.4798 66.6225 41.5143 68.0503 35.6322C70.0451 29.0157 73.778 23.6038 79.2492 19.3964C80.9128 18.1268 82.6631 16.9837 84.5004 15.9671C84.7585 15.7842 85.0443 15.6949 85.3577 15.6992C86.9958 21.4802 87.6923 27.3744 87.4475 33.3817C87.2582 37.9614 86.1151 42.2837 84.0181 46.3489C82.4584 49.1237 80.3687 51.4277 77.7489 53.2612C75.5687 54.6369 73.4253 56.0657 71.3189 57.5478C70.6036 58.1779 70.0321 58.9101 69.6042 59.7447C73.5091 66.9867 78.028 73.8097 83.1608 80.2136C86.6644 84.4631 90.3438 88.5711 94.199 92.5378C91.4116 86.0301 89.6254 79.2428 88.8406 72.1761C88.1948 64.793 89.7309 57.8987 93.4488 51.4929C95.2605 48.3237 97.4753 45.4658 100.093 42.9196C104.625 49.4147 107.698 56.5592 109.309 64.3529C110.256 69.2085 110.06 74.0132 108.72 78.7668C107.946 81.1548 106.821 83.3518 105.344 85.3576C103.992 87.1034 102.599 88.818 101.165 90.5016C99.8175 92.089 98.9602 93.9108 98.5928 95.9671C98.5213 96.2529 98.5213 96.5386 98.5928 96.8244C107.657 105.285 117.248 113.054 127.367 120.133C133.277 124.285 139.242 128.357 145.264 132.35C158.579 140.88 171.779 149.578 184.862 158.445C184.88 158.194 184.845 157.944 184.755 157.695C180.919 146.582 177.454 135.365 174.36 124.045C173.304 122.74 172 121.757 170.448 121.098C167.079 119.987 163.72 118.844 160.374 117.668C155.487 115.53 151.539 112.262 148.533 107.863C145.32 102.935 143.105 97.5765 141.888 91.7876C140.707 86.35 140.153 80.8487 140.227 75.2839C149.36 77.1611 157.129 81.4477 163.536 88.1439C166 90.9954 168.036 94.139 169.644 97.5746C169.211 90.8399 169.64 84.1598 170.93 77.5344C171.603 74.3241 172.55 71.1984 173.77 68.1573C169.246 64.8361 167.62 60.4245 168.894 54.9222C170.512 50.2984 173.746 47.6015 178.593 46.8311C183.698 46.4989 187.539 48.5172 190.113 52.8861C191.42 55.6361 191.706 58.4939 190.971 61.4594C189.808 65.1937 187.397 67.748 183.737 69.1218C181.589 69.7536 179.409 69.8785 177.2 69.4969C175.453 75.2937 174.595 81.2235 174.628 87.2866C174.911 98.2732 176.858 108.955 180.468 119.329C182.879 112.184 186.273 105.575 190.649 99.5036C195.982 92.9998 202.715 88.588 210.85 86.2685C213.583 85.4539 216.369 84.936 219.209 84.7146C218.515 93.7811 216.032 102.319 211.761 110.327C209.599 114.093 206.867 117.397 203.563 120.24C200.867 122.339 197.867 123.874 194.561 124.849C191.796 125.552 189.009 126.159 186.202 126.67C185.18 126.928 184.18 127.249 183.201 127.635C186.88 138.921 189.256 150.476 190.328 162.303C217.905 181.841 242.053 205.025 262.772 231.855C264.165 233.748 265.559 235.641 266.952 237.534C264.189 228.306 261.475 219.055 258.807 209.778C257.333 204.486 255.975 199.164 254.735 193.81C253.525 192.785 252.149 192.053 250.609 191.613C247.117 190.957 243.616 190.349 240.107 189.792C234.161 188.449 229.142 185.538 225.05 181.058C220.466 175.752 217.037 169.75 214.762 163.054C213.129 158.384 212.004 153.597 211.386 148.693C220.26 149.157 228.37 151.854 235.713 156.784C238.937 159.08 241.741 161.813 244.125 164.983C246.931 168.733 249.36 172.735 251.413 176.985C249.374 164.031 248.446 150.992 248.626 137.869C243.881 136.482 240.987 133.374 239.946 128.546C239.365 124.322 240.633 120.768 243.75 117.883C247.431 114.999 251.468 114.392 255.86 116.061C261.127 118.718 263.36 122.986 262.558 128.867C261.213 134.3 257.767 137.372 252.216 138.084C252.734 151.302 254.395 164.376 257.2 177.307C258.116 181.577 259.116 185.828 260.2 190.06C261.413 181.564 263.949 173.49 267.809 165.84C271.348 159.55 276.224 154.567 282.437 150.89C286.364 148.535 290.544 146.766 294.976 145.585C296.004 155.16 294.878 164.518 291.6 173.663C289.806 178.524 287.109 182.793 283.509 186.469C281.358 188.456 278.964 190.1 276.329 191.399C273.433 192.626 270.504 193.77 267.541 194.828C266.028 195.46 264.635 196.282 263.362 197.293C263.016 197.586 262.729 197.925 262.504 198.311C264.569 204.774 266.73 211.204 268.988 217.601C272.623 228.821 275.124 240.288 276.49 252.002C285.566 267.192 292.568 283.302 297.494 300.334C299.054 305.964 300.322 311.643 301.299 317.374C301.299 317.838 301.299 318.303 301.299 318.767C300.986 319.402 300.485 319.796 299.798 319.946C299.298 319.946 298.799 319.946 298.298 319.946C297.872 319.752 297.568 319.43 297.387 318.981C289.729 296.558 279.584 275.374 266.952 255.431C265.121 252.52 263.263 249.626 261.379 246.751C259.999 244.614 258.552 242.524 257.039 240.482C252.625 237.559 247.981 235.024 243.107 232.873C235.898 229.839 228.504 227.339 220.924 225.371C216.328 224.142 211.72 222.963 207.099 221.834C199.576 220.151 192.057 218.454 184.541 216.744C181.904 217.987 179.94 219.916 178.646 222.531C177.025 226.062 175.131 229.421 172.967 232.605C169.103 237.388 164.227 240.728 158.338 242.625C150.894 244.924 143.286 245.744 135.512 245.09C132.527 244.864 129.562 244.488 126.617 243.964C129.68 236.024 134.538 229.398 141.192 224.085C145.641 220.789 150.571 218.467 155.981 217.119C162.239 215.511 168.597 214.581 175.056 214.333C166.097 211.942 157.524 208.584 149.336 204.259C142.332 200.352 136.063 195.476 130.529 189.631C126.025 191.336 121.935 190.639 118.258 187.541C114.341 183.412 113.573 178.75 115.954 173.556C119.116 168.559 123.599 166.72 129.403 168.037C135.163 170.193 137.861 174.355 137.494 180.522C137.111 183.508 135.771 185.955 133.476 187.863C140.026 194.046 147.491 198.869 155.873 202.33C163.031 205.252 170.39 207.502 177.95 209.082C171.227 205.314 165.243 200.581 159.999 194.882C154.882 188.537 151.846 181.285 150.89 173.127C150.479 169.914 150.425 166.699 150.729 163.482C159.974 165.849 168.333 169.94 175.806 175.753C179.342 178.68 182.289 182.091 184.648 185.987C186.485 189.332 187.592 192.904 187.97 196.704C188.135 200.206 188.314 203.706 188.506 207.206C188.663 208.482 189.021 209.696 189.577 210.85C189.74 211.178 189.955 211.463 190.22 211.707C197.377 213.04 204.539 214.344 211.707 215.619C220.301 217.071 228.66 219.357 236.784 222.478C240.6 224.064 244.314 225.815 247.93 227.729C232.22 207.232 214.144 189.085 193.703 173.288C185.192 166.871 176.512 160.692 167.662 154.748C162.767 151.48 157.874 148.211 152.98 144.942C151.431 145.332 150.074 146.064 148.908 147.139C148.208 147.804 147.547 148.5 146.925 149.229C145.363 151.292 143.72 153.293 141.995 155.23C137.459 159.794 131.976 162.491 125.545 163.321C118.211 164.159 110.995 163.553 103.898 161.5C101.042 160.727 98.2561 159.762 95.5386 158.606C95.4896 158.562 95.4538 158.509 95.4314 158.445C100.386 150.914 107.03 145.43 115.364 141.995C120.555 140.228 125.896 139.389 131.386 139.477C136.669 139.56 141.903 140.078 147.086 141.031C142.674 138.057 138.28 135.056 133.904 132.029C131.147 130.8 128.289 129.871 125.331 129.242C120.549 128.294 115.727 127.651 110.863 127.313C105.541 126.904 100.219 126.546 94.8956 126.242C93.8371 127.555 93.1048 129.038 92.6986 130.689C92.0603 133.636 91.2386 136.53 90.2338 139.37C88.5666 143.288 86.0482 146.556 82.6785 149.175C77.848 152.733 72.4897 155.198 66.6035 156.57C62.3777 157.605 58.0911 158.195 53.7435 158.338C55.0124 149.602 58.7632 142.154 64.996 135.994C68.8974 132.648 73.2555 130.004 78.0704 128.064C80.2871 127.152 82.5376 126.331 84.8219 125.599C80.1486 125.28 75.469 125.031 70.783 124.849C64.0638 124.422 57.4551 123.332 50.9572 121.58C49.9057 121.981 48.9769 122.57 48.1708 123.348C46.2215 125.587 44.3104 127.856 42.4374 130.153C38.3196 134.508 33.2649 137.061 27.2733 137.816C20.9343 138.565 14.6829 138.1 8.51914 136.423C5.60316 135.635 2.74538 134.689 -0.0541992 133.583C-0.0541992 133.475 -0.0541992 133.368 -0.0541992 133.261C8.9853 120.255 21.4523 114.629 37.347 116.382C30.463 112.957 24.5689 108.277 19.6645 102.344C14.29 103.506 9.98545 101.88 6.75089 97.4674C4.7672 94.0875 4.4457 90.551 5.78639 86.8579C7.55218 82.9109 10.5707 80.571 14.842 79.8385C19.1586 79.3831 22.713 80.7941 25.5051 84.0716C28.1291 87.7227 28.6292 91.6521 27.0054 95.8599C26.1145 97.8197 24.7927 99.4272 23.0402 100.682C22.9688 100.754 22.9688 100.825 23.0402 100.897C28.3571 106.351 34.5906 110.442 41.7408 113.167C50.8291 116.545 60.2241 118.367 69.9257 118.633C78.4276 118.668 86.9295 118.705 95.4314 118.74C103.33 118.903 111.154 119.725 118.901 121.205C111.586 115.75 104.584 109.891 97.8962 103.63C96.2395 103.077 94.5606 103.006 92.8594 103.415C89.8516 104.501 86.851 105.609 83.8574 106.737C78.3478 108.296 72.918 108.046 67.568 105.987C63.1217 104.194 59.0493 101.801 55.351 98.807C51.7353 95.8343 48.4845 92.5122 45.5988 88.8405C52.6437 85.0811 60.1453 83.6165 68.1039 84.4467C72.0864 85.0002 75.8729 86.179 79.4635 87.9832C81.7321 89.1521 83.9468 90.3667 86.1079 91.6269C76.8911 81.4523 69.2108 70.1998 63.067 57.8693C62.1416 57.3165 61.1415 56.9949 60.0664 56.9048C57.3317 56.9063 54.5989 56.9956 51.8681 57.1727C47.7201 57.2307 43.88 56.1769 40.3477 54.0113C37.3359 52.0465 34.6746 49.671 32.3638 46.8847C28.634 42.2501 25.7583 37.1061 23.7368 31.4527C35.9936 29.4116 46.2995 32.9481 54.6544 42.0622C55.8485 43.3799 56.9916 44.7374 58.0838 46.1346C56.1489 40.5428 54.4699 34.863 53.0469 29.095C52.5491 26.9967 52.1026 24.8892 51.7074 22.7722C46.2882 21.9079 42.9482 18.8001 41.6873 13.4487C41.0226 8.04495 43.0052 3.95474 47.635 1.1781C48.8387 0.583436 50.0889 0.172629 51.3859 -0.0543213Z" fill="#CAB9AE"/>
</svg>
