<svg width="67" height="94" viewBox="0 0 67 94" fill="none" xmlns="http://www.w3.org/2000/svg">
<path opacity="0.994" fill-rule="evenodd" clip-rule="evenodd" d="M19.0688 -0.0189819C19.1523 -0.0189819 19.2357 -0.0189819 19.3192 -0.0189819C20.781 3.29007 21.412 6.75299 21.2123 10.3698C21.0047 13.0586 20.1285 15.4993 18.5838 17.6921C17.9495 18.5746 17.2923 19.4404 16.6124 20.2893C16.2316 20.8003 15.8978 21.3426 15.6111 21.9164C15.3652 22.4472 15.2348 23.0052 15.22 23.5905C15.5105 28.5657 16.2041 33.4837 17.3009 38.3445C17.3975 36.5525 17.6896 34.7895 18.177 33.0563C19.0561 30.1651 20.6572 27.7609 22.9803 25.8435C24.8724 24.2972 26.9793 23.1133 29.3012 22.2919C29.7359 25.4451 29.5221 28.5534 28.6597 31.6168C27.7607 34.6624 26.1283 37.2334 23.7626 39.3302C22.8329 40.1034 21.8941 40.8651 20.9463 41.6145C20.6803 41.8595 20.4144 42.1048 20.1484 42.3499C19.6554 42.8455 19.2799 43.4191 19.0219 44.0709C18.986 44.1729 18.9599 44.2771 18.9437 44.3838C20.7196 50.1152 23.1447 55.5493 26.219 60.6867C26.1047 60.0944 25.9899 59.4999 25.8748 58.9031C25.0961 54.6913 25.9201 50.8321 28.3468 47.3252C29.7556 45.3273 31.4609 43.6269 33.463 42.2247C35.2006 45.9644 35.8524 49.8864 35.4187 53.9903C35.1199 56.3162 34.3895 58.496 33.2283 60.5303C32.6043 61.5817 31.9682 62.6246 31.3195 63.6594C30.8157 64.4614 30.4715 65.327 30.2869 66.2567C30.266 66.3921 30.266 66.5279 30.2869 66.6634C34.066 71.59 38.3948 75.9815 43.2729 79.8372C43.0588 79.4414 42.8188 79.0555 42.5532 78.6794C41.6895 77.2547 41.0221 75.7424 40.5505 74.1421C39.9895 71.9899 39.9165 69.8201 40.3315 67.6335C40.8975 64.8335 41.9927 62.2676 43.6171 59.9357C46.3532 62.6315 48.2933 65.8233 49.4373 69.511C50.2174 72.1651 50.3739 74.8562 49.9067 77.5842C49.7246 78.62 49.5265 79.6526 49.3122 80.6821C49.1272 81.5401 49.0646 82.4059 49.1244 83.2793C49.1576 83.6116 49.2305 83.9352 49.3435 84.2493C49.7055 84.5166 50.076 84.7719 50.4543 85.016C55.3527 88.1226 60.4845 90.8243 65.8498 93.1205C65.9521 93.1759 66.0253 93.2541 66.0688 93.3552C66.0688 93.4491 66.0688 93.5429 66.0688 93.6368C66.0238 93.7795 65.9402 93.894 65.8185 93.981C65.7036 93.981 65.5891 93.981 65.4743 93.981C62.7184 92.9631 60.0067 91.8313 57.3385 90.5859C56.3162 90.0749 55.2942 89.5636 54.2719 89.0526C53.2102 88.4646 52.1462 87.8857 51.0801 87.3159C50.4931 87.3791 49.9299 87.5306 49.3904 87.7696C49.0205 87.9492 48.6553 88.137 48.2952 88.3329C47.0216 89.1471 45.7074 89.8981 44.3524 90.5859C41.6945 91.7527 38.9409 92.0447 36.0915 91.462C34.066 91.0546 32.1468 90.3559 30.3338 89.3655C27.1465 87.6079 24.4241 85.2923 22.1667 82.4188C22.1794 82.389 22.2002 82.3684 22.2293 82.3562C26.9791 80.9071 31.8189 80.4793 36.7486 81.0732C38.2193 81.3026 39.669 81.6262 41.0981 82.0433C42.3717 82.4263 43.6337 82.8331 44.8844 83.2636C40.6231 80.2346 36.743 76.7506 33.2439 72.8122C32.629 72.7109 32.0135 72.7109 31.3977 72.8122C31.072 72.8629 30.7487 72.9255 30.4277 73C29.5421 73.224 28.6555 73.4431 27.7679 73.6571C24.703 74.394 21.7511 74.0811 18.9124 72.7184C16.753 71.6548 14.8494 70.2413 13.2017 68.4784C10.9093 66.0032 9.1361 63.1869 7.88209 60.0296C7.81484 59.8438 7.75745 59.656 7.70998 59.4664C12.4426 59.5189 16.9694 60.5046 21.2905 62.4234C22.9009 63.202 24.4342 64.0991 25.8904 65.1145C26.8272 65.7735 27.7451 66.436 28.6441 67.1015C25.7842 63.1316 23.3331 58.9022 21.2905 54.4128C20.689 54.021 20.0318 53.7707 19.3192 53.6618C18.9765 53.6073 18.6323 53.5654 18.2865 53.5366C17.0943 53.4815 15.9052 53.3877 14.7193 53.255C12.0012 52.8607 9.65435 51.7236 7.67869 49.8442C5.50299 47.6801 3.88102 45.1505 2.81285 42.256C1.97065 40.0346 1.45434 37.74 1.26391 35.3718C5.74844 36.555 9.73289 38.6462 13.2173 41.6458C14.4929 42.848 15.6663 44.1363 16.7376 45.5103C17.4815 46.4838 18.2012 47.4745 18.8967 48.483C18.9172 48.5206 18.9328 48.5206 18.9437 48.483C17.4499 44.2396 16.3182 39.9004 15.5485 35.4657C14.857 34.6947 14.0173 34.1471 13.0296 33.8229C11.7922 33.4349 10.5614 33.0281 9.33714 32.6025C6.91214 31.6588 4.95641 30.1203 3.46997 27.987C1.88551 25.63 0.852885 23.0433 0.372102 20.2267C0.17831 19.1238 0.0479282 18.0181 -0.019043 16.9098C-0.019043 16.0545 -0.019043 15.1992 -0.019043 14.3439C0.0249174 13.6993 0.0927159 13.0527 0.184352 12.4038C4.21243 14.4284 7.60237 17.2342 10.3541 20.8212C11.5204 22.4852 12.5113 24.2584 13.3268 26.1408C13.8164 27.2652 14.2753 28.4022 14.7037 29.5516C14.5218 27.6157 14.3863 25.6756 14.2969 23.7314C13.6528 22.7352 13.1417 21.6713 12.7636 20.5396C11.8137 17.8134 11.3757 15.0076 11.4493 12.1222C11.5768 9.27794 12.4634 6.70161 14.1091 4.39314C15.2698 2.75257 16.6935 1.39138 18.3804 0.30958C18.6089 0.190033 18.8384 0.0805119 19.0688 -0.0189819Z" fill="#C4AD87"/>
</svg>
