<svg width="309" height="315" viewBox="0 0 309 315" fill="none" xmlns="http://www.w3.org/2000/svg">
<path d="M70.9982 269.937C78.9261 259.651 84.9403 248.221 93.1416 238.22C100.523 229.363 108.724 221.648 118.566 215.933C127.314 210.79 137.429 207.361 147.544 206.789C155.198 206.504 163.126 207.075 170.781 208.218C165.04 205.361 159.572 202.503 154.378 199.075C148.364 195.074 142.896 190.502 137.702 185.359L137.429 185.073C135.788 183.359 134.148 181.93 132.781 180.216C129.774 176.787 126.767 173.358 124.033 169.929C116.379 190.788 95.8754 204.218 74.5521 203.361C62.7969 202.789 51.5885 198.503 42.0203 191.645C34.9125 186.788 29.1716 180.502 23.704 173.93C17.6898 166.501 11.4021 159.357 2.10732 156.786C0.467063 157.357 -0.899819 154.785 0.740439 153.928C21.2437 145.928 43.1138 138.499 64.9839 135.927C78.106 134.213 93.1417 136.784 105.17 143.07C101.343 137.07 97.7891 131.355 93.9618 125.355C82.7534 117.354 68.5378 118.211 56.7826 111.925C46.3943 106.496 38.193 97.0669 33.5456 86.2089C28.3515 73.9223 28.6248 61.3499 31.6319 48.7775C35.4592 33.6335 42.2937 17.6323 36.5528 2.2026C36.006 0.488181 38.4664 -0.940498 39.2865 0.773917C39.2865 0.773917 39.2865 0.773918 39.2865 1.05965C39.5599 1.05965 39.8332 1.34539 40.1066 1.63112C48.5813 11.9176 61.9768 17.0609 71.8183 25.3472C80.8397 33.0621 88.7677 42.2056 93.9618 53.0636C97.7891 61.3499 99.9761 70.7792 100.796 80.2085C107.084 75.6367 115.012 76.4939 121.573 80.4942C128.954 85.066 133.875 91.6379 134.968 100.496C136.882 98.2098 138.795 95.9239 140.982 93.9238C145.903 89.352 151.644 85.6374 157.112 81.6371C163.946 76.7796 169.687 71.6364 174.881 65.0645C175.701 63.9215 177.615 64.493 177.615 65.9217C177.615 73.9223 179.802 81.3514 182.536 88.7805C184.996 95.0667 186.636 101.924 187.456 108.782C188.55 117.354 189.644 126.783 188.277 135.07C186.91 143.07 184.449 151.071 181.989 158.786C179.529 166.501 177.068 175.358 172.147 181.645C169.414 185.073 166.133 189.645 162.033 191.645C158.479 193.646 154.925 193.646 151.371 193.074C152.191 193.646 153.284 194.503 154.105 195.074C163.126 201.36 173.241 205.932 183.083 210.504C198.665 218.219 214.794 225.362 230.103 233.934C224.089 227.648 218.895 220.219 218.075 211.933C216.161 194.503 229.01 178.502 238.851 165.929C241.858 162.215 244.592 158.786 247.599 155.071C249.513 152.785 251.427 150.785 253.34 148.499C254.98 146.785 256.894 143.928 258.808 142.785C264.002 139.642 268.649 150.499 270.836 154.214C279.311 168.501 283.958 185.359 284.232 201.932C284.505 211.361 283.138 221.076 280.404 230.22C277.124 240.792 270.563 247.935 262.635 254.793C266.189 257.65 269.469 260.508 272.75 263.365C287.786 277.366 299.541 294.225 308.836 312.797C309.656 314.512 307.195 315.94 306.102 314.226C297.627 297.368 286.965 281.652 273.57 268.508C261.268 256.507 247.326 247.078 232.564 238.792C230.923 237.935 229.283 237.077 227.916 236.22C235.571 244.507 239.398 256.222 235.297 267.651C230.923 279.938 219.715 286.224 207.413 283.652C194.018 280.795 183.356 270.509 179.255 257.079C171.054 266.508 160.119 273.652 147.817 275.08C134.695 276.795 121.573 275.366 108.724 272.794C97.5157 270.509 83.3001 264.794 72.9118 271.651C71.5449 272.794 70.1781 271.08 70.9982 269.937ZM103.803 157.643C103.53 157.643 102.983 157.643 102.71 157.357C99.7027 157.071 96.9689 156.786 93.9618 156.786C91.228 156.786 87.9475 157.643 85.7605 156.5C80.0196 153.928 74.2787 151.642 68.8111 149.071C67.1709 148.214 66.0774 151.071 67.991 151.928C72.0917 153.928 77.8326 154.785 81.6599 157.643C77.8326 159.357 72.9118 158.786 69.0845 158.5C64.7105 158.214 60.3365 157.357 56.5092 155.071C54.8689 154.214 53.2287 156.5 54.8689 157.643C58.9696 160.214 63.617 161.072 68.2644 161.643C65.2573 163.072 62.2501 164.501 59.7898 166.501C58.1495 167.644 60.0631 169.929 61.7033 168.787C69.0845 163.358 79.4728 160.786 89.041 159.929C82.7533 161.929 77.0125 165.072 73.732 171.358C72.9118 173.073 75.0988 174.787 76.1923 173.073C79.7462 166.501 86.5806 163.358 93.415 161.929C102.983 159.929 111.458 161.072 120.206 165.643C119.112 164.215 118.019 162.786 117.199 161.072C116.652 159.929 111.731 159.072 110.364 158.786C108.177 158.214 105.99 157.929 103.803 157.643ZM110.911 146.499C111.184 146.785 111.184 146.785 111.184 147.071C116.379 154.786 121.573 162.5 127.314 169.644C124.307 163.643 122.12 157.357 121.026 150.785C119.933 143.07 120.206 135.355 121.846 127.926C115.012 133.355 105.17 131.927 98.0625 126.498C102.436 133.07 106.537 139.927 110.911 146.499ZM62.7969 31.6334C63.0703 30.7762 63.0703 29.919 62.5235 29.6332C61.9768 29.3475 61.1566 29.3475 60.8832 29.919C60.3365 30.2047 60.0632 31.0619 60.0632 31.6334C59.243 34.205 58.4228 36.4909 57.8761 39.0625C56.5092 32.7763 54.3222 26.4901 51.3151 20.7754C50.7683 19.6325 49.9482 18.4895 48.8547 19.061C47.7612 19.6325 48.3079 21.0612 48.8547 22.2041C54.0489 33.0621 56.2358 45.3487 58.1495 57.6353C56.5092 54.778 53.5021 52.7778 50.495 52.2064C49.9482 52.2064 49.1281 51.9206 48.5813 52.2064C48.0346 52.4921 47.4878 53.0636 47.4878 53.635C47.4878 54.778 48.8547 55.0637 49.6748 55.3495C53.5021 56.4924 56.2358 59.6355 58.1495 63.0643C59.7897 65.9217 60.8833 68.779 62.5235 71.6364C62.5235 71.6364 62.5235 71.6364 62.5235 71.9221C63.617 75.6367 64.7105 77.9226 66.3508 81.6371C64.4371 79.9227 62.5235 79.637 60.3365 78.494C58.6962 77.6368 57.056 80.2085 58.6963 81.0657C63.8904 83.923 67.991 88.2091 71.5449 93.0666C76.7391 102.496 83.3001 111.354 89.8612 119.354C90.6813 118.497 91.228 116.211 91.228 116.211C91.228 115.64 87.9475 112.211 87.6741 111.354C86.3072 109.639 85.2137 107.925 83.8468 106.21C81.3865 102.782 78.6527 99.3528 77.0124 95.6382C74.8254 90.7807 74.2787 84.2088 74.2787 78.7798C74.0053 73.0651 74.5521 67.3504 76.4657 61.9214C77.0125 60.207 74.2787 59.064 73.732 61.0642C70.7248 69.3505 69.6313 73.9223 70.7248 82.7801C70.4514 81.0657 68.5378 78.7798 67.7177 77.3511C64.4371 70.4935 62.2501 61.6356 61.1566 53.9208C60.0631 46.7774 60.3365 39.3482 62.7969 32.7763C62.7969 32.2048 62.7969 31.9191 62.7969 31.6334ZM103.53 88.7805C102.163 89.9235 104.077 92.2094 105.444 91.0664C110.911 86.4947 118.566 87.3518 123.213 92.7808C124.307 94.2095 126.767 92.2094 125.4 90.7807C119.933 84.2088 110.364 83.3516 103.53 88.7805ZM148.09 189.36C146.723 179.073 146.997 168.501 148.637 158.5C151.918 147.356 163.399 139.642 171.874 132.784C173.241 131.641 171.327 129.355 169.96 130.498C163.673 135.641 156.018 141.07 150.824 147.928C153.558 137.07 157.932 126.498 163.673 116.783C164.493 115.068 162.306 113.354 161.212 115.068C157.932 120.783 155.198 126.498 152.738 132.498C152.464 130.498 152.191 128.498 151.644 126.783C150.551 123.926 148.637 121.64 146.723 119.354C145.63 117.926 143.443 119.926 144.536 121.354C145.903 123.355 147.817 125.069 148.637 127.355C150.551 131.641 150.551 137.641 149.184 142.213C147.817 147.642 146.723 153.357 145.357 158.786C143.99 153.928 141.803 149.071 138.796 145.07C138.249 144.499 137.702 143.928 137.155 143.642C136.335 143.356 135.515 143.642 135.515 144.499C135.242 145.07 135.788 145.928 136.335 146.499C139.616 150.499 141.529 155.071 142.896 159.929C143.443 162.215 144.263 164.501 144.536 166.786C144.81 169.929 144.263 173.358 144.263 176.501C144.263 177.644 144.263 187.645 145.083 187.931C145.357 187.931 145.357 187.931 145.63 188.217C146.177 188.502 146.45 188.502 146.997 188.788C147.27 189.074 147.817 189.074 148.09 189.36ZM246.506 244.221C247.053 244.507 247.326 244.792 247.873 244.792C247.873 244.507 247.873 244.507 247.873 244.221C247.599 239.363 247.599 234.792 247.873 229.934C252.793 220.505 259.901 212.79 267.556 205.646C268.923 204.218 267.009 201.932 265.642 203.361C259.354 209.361 253.067 215.933 248.419 223.362C249.513 210.218 252.794 197.36 260.995 186.502C262.088 185.073 259.628 183.359 258.534 184.788C254.16 190.502 251.153 196.789 248.966 203.646C248.419 201.646 247.873 199.646 246.779 197.932C244.319 193.36 240.218 189.645 236.938 185.645C235.571 184.216 233.384 186.216 234.751 187.645C237.758 191.36 241.585 195.074 244.045 199.36C245.959 202.789 246.506 207.075 247.053 211.075C245.959 217.076 245.412 223.076 245.139 229.077C245.139 229.363 245.139 229.648 245.139 229.934C245.139 231.077 245.139 232.22 245.139 233.649C241.585 227.648 237.484 222.505 233.11 217.076C232.017 215.647 229.83 217.647 230.923 219.076C236.118 225.648 241.312 232.22 245.139 239.935C245.139 241.078 245.139 242.221 245.139 243.649C245.412 243.649 245.959 243.935 246.506 244.221ZM207.14 225.648C205.226 224.791 203.039 223.648 201.125 222.791C200.579 224.505 199.758 226.219 199.212 227.934C201.672 226.505 204.406 225.934 207.14 225.648ZM208.506 272.794C210.42 272.794 210.694 269.651 208.78 269.651C202.766 269.651 197.571 261.936 195.111 256.793C192.377 251.078 191.557 244.507 192.924 238.506C192.924 238.22 192.924 238.22 192.924 237.935C191.557 239.363 190.464 241.078 189.37 242.792C189.097 248.507 190.19 254.222 192.924 259.365C196.478 265.365 201.672 272.794 208.506 272.794ZM124.853 248.221C129.774 240.792 136.335 234.792 143.443 230.22C139.342 234.792 137.155 240.506 138.249 247.65C138.522 249.65 141.529 249.078 140.982 247.078C139.342 236.506 145.903 230.791 153.284 225.077C153.284 225.077 153.558 225.077 153.558 224.791C155.198 224.219 156.565 223.648 158.205 223.076C163.399 221.648 168.594 220.79 174.061 220.505C169.414 223.076 165.313 226.505 161.212 230.22C157.385 233.934 154.105 237.935 154.105 243.649C154.105 245.649 156.838 245.935 157.112 243.935C157.385 237.649 161.759 233.934 165.86 230.22C170.234 226.505 174.881 223.362 180.075 220.79C180.349 220.79 180.349 220.505 180.622 220.505C186.636 220.505 192.651 221.076 198.665 221.648C198.938 221.648 199.212 221.648 199.485 221.362C197.571 220.505 195.658 219.648 193.744 218.505C193.197 218.505 192.924 218.219 192.377 218.219C179.802 217.362 166.953 216.79 154.925 221.076C153.831 221.362 153.011 221.648 151.918 222.219C147.817 219.933 143.443 219.076 138.796 219.076C136.882 219.076 136.608 222.219 138.522 222.219C141.803 222.219 145.083 222.505 148.364 223.934C142.076 226.791 136.335 230.791 131.414 235.649C125.947 235.077 120.479 235.077 115.012 236.22C113.098 236.506 113.645 239.649 115.559 239.078C119.933 238.22 124.307 237.935 128.681 238.506C126.22 241.078 124.033 243.935 121.846 246.792C121.299 248.221 123.76 249.936 124.853 248.221Z" fill="#CAB9AE"/>
</svg>
